<?xml version="1.0" standalone="no"?><!DOCTYPE svg PUBLIC "-//W3C//DTD SVG 1.1//EN" "http://www.w3.org/Graphics/SVG/1.1/DTD/svg11.dtd"><svg t="1606202530416" class="icon" viewBox="0 0 1024 1024" version="1.1" xmlns="http://www.w3.org/2000/svg" p-id="4938" xmlns:xlink="http://www.w3.org/1999/xlink" width="200" height="200"><defs><style type="text/css"></style></defs><path d="M512 81.92C274.47296 81.92 81.92 274.47296 81.92 512s192.55296 430.08 430.08 430.08 430.08-192.55296 430.08-430.08S749.52704 81.92 512 81.92z m0 798.72c-203.5712 0-368.64-165.04832-368.64-368.64 0-203.5712 165.0688-368.64 368.64-368.64s368.64 165.0688 368.64 368.64c0 203.59168-165.0688 368.64-368.64 368.64z" p-id="4939" fill="#ffffff"></path><path d="M520.76544 391.72096c20.50048 15.4624 51.67104 6.08256 69.50912-20.8896 17.87904-26.99264 15.6672-61.39904-4.87424-76.86144-20.56192-15.42144-51.712-6.06208-69.5296 20.91008-17.85856 26.97216-15.62624 61.3376 4.9152 76.84096z m31.27296 295.3216s-54.12864 34.6112-40.67328-9.1136c0 0 4.3008-19.1488 19.08736-59.20768 11.79648-32.01024 31.10912-77.27104 54.66112-137.5232 0 0 12.30848-30.35136-39.44448-24.59648-22.38464 2.47808-49.84832 12.84096-72.45824 24.576-29.63456 15.44192-52.51072 33.3824-59.76064 40.07936l17.79712 10.9568s100.352-76.47232 75.01824-12.75904c-25.35424 63.67232-66.12992 157.63456-64.83968 195.7888 1.24928 38.21568 69.95968 15.5648 69.95968 15.5648s18.45248-8.17152 39.40352-20.0704a1128.448 1128.448 0 0 0 59.78112-37.39648l-16.54784-11.81696-41.984 25.51808z" p-id="4940" fill="#ffffff"></path></svg>