<?xml version="1.0" standalone="no"?><!DOCTYPE svg PUBLIC "-//W3C//DTD SVG 1.1//EN" "http://www.w3.org/Graphics/SVG/1.1/DTD/svg11.dtd"><svg t="1606302257384" class="icon" viewBox="0 0 1024 1024" version="1.1" xmlns="http://www.w3.org/2000/svg" p-id="4241" xmlns:xlink="http://www.w3.org/1999/xlink" width="200" height="200"><defs><style type="text/css"></style></defs><path d="M512 225.28c158.208 0 286.72 128.512 286.72 286.72s-128.512 286.72-286.72 286.72-286.72-128.512-286.72-286.72 128.512-286.72 286.72-286.72m0-71.68c-198.144 0-358.4 160.256-358.4 358.4s160.256 358.4 358.4 358.4 358.4-160.256 358.4-358.4-160.256-358.4-358.4-358.4z" p-id="4242"></path><path d="M646.656 682.496c-9.216 0-18.432-3.584-25.6-10.24L486.912 537.6c-6.656-6.656-10.752-15.872-10.752-25.6V332.288c0-19.968 15.872-35.84 35.84-35.84s35.84 15.872 35.84 35.84v164.864l124.416 123.904c13.824 13.824 13.824 36.864 0 50.688-7.168 7.168-16.384 10.752-25.6 10.752z" p-id="4243"></path></svg>