<?xml version="1.0" standalone="no"?><!DOCTYPE svg PUBLIC "-//W3C//DTD SVG 1.1//EN" "http://www.w3.org/Graphics/SVG/1.1/DTD/svg11.dtd"><svg t="1606321362076" class="icon" viewBox="0 0 1024 1024" version="1.1" xmlns="http://www.w3.org/2000/svg" p-id="16715" xmlns:xlink="http://www.w3.org/1999/xlink" width="200" height="200"><defs><style type="text/css"></style></defs><path d="M908.032 311.552L764.032 167.552a63.104 63.104 0 0 0-44.672-18.432h-33.792a64 64 0 0 0-60.544 41.856c-9.216 25.6-51.2 54.016-111.616 54.016s-102.4-27.776-111.744-53.888a64 64 0 0 0-60.288-42.112h-35.84a62.464 62.464 0 0 0-45.312 18.56L115.968 311.68a89.6 89.6 0 0 0 0 126.464l70.784 70.784a64 64 0 0 0 72.32 12.8v263.68a89.6 89.6 0 0 0 89.6 89.6 38.4 38.4 0 1 0 0-76.8 12.8 12.8 0 0 1-12.8-12.8V496.896a64 64 0 0 0-103.424-51.2L170.368 384a12.8 12.8 0 0 1 0-17.792l140.8-140.8H332.8c25.6 57.088 98.304 96.128 180.48 96.128s154.496-39.04 180.352-95.872h19.968l140.032 140.16a12.8 12.8 0 0 1 3.712 8.96 12.032 12.032 0 0 1-3.712 8.96l-70.912 71.04a38.4 38.4 0 1 0 54.272 54.272l71.04-70.912a89.6 89.6 0 0 0 0-126.592z" p-id="16716" fill="#6610f2"></path><path d="M641.92 486.4a38.4 38.4 0 0 0-46.976 46.976 120.96 120.96 0 0 1-148.352 147.968 38.4 38.4 0 0 0-46.976 46.976A198.016 198.016 0 1 0 641.92 486.4z m34.688 276.992a121.472 121.472 0 0 1-171.52 0l-2.304-2.432A196.864 196.864 0 0 0 674.176 588.8l2.432 2.304a121.472 121.472 0 0 1 0 171.904z" p-id="16717" fill="#6610f2"></path></svg>