<?xml version="1.0" standalone="no"?><!DOCTYPE svg PUBLIC "-//W3C//DTD SVG 1.1//EN" "http://www.w3.org/Graphics/SVG/1.1/DTD/svg11.dtd"><svg t="1606273486737" class="icon" viewBox="0 0 1024 1024" version="1.1" xmlns="http://www.w3.org/2000/svg" p-id="3174" xmlns:xlink="http://www.w3.org/1999/xlink" width="200" height="200"><defs><style type="text/css"></style></defs><path d="M866.133333 85.333333H725.333333V0h-85.333333v85.333333H384V0H298.666667v85.333333H157.866667C72.533333 85.333333 0 157.866667 0 243.2v622.933333c0 85.333333 72.533333 157.866667 157.866667 157.866667h708.266666c85.333333 0 157.866667-72.533333 157.866667-157.866667V243.2c0-85.333333-72.533333-157.866667-157.866667-157.866667zM938.666667 861.866667c0 21.333333-8.533333 42.666667-21.333334 55.466666-12.8 12.8-34.133333 21.333333-55.466666 21.333334H162.133333c-21.333333 0-42.666667-8.533333-55.466666-21.333334-12.8-17.066667-21.333333-38.4-21.333334-55.466666V426.666667h853.333334v435.2zM938.666667 341.333333H85.333333V247.466667c0-21.333333 8.533333-42.666667 21.333334-55.466667 17.066667-12.8 38.4-21.333333 55.466666-21.333333h695.466667c21.333333 0 42.666667 8.533333 55.466667 21.333333 17.066667 17.066667 25.6 38.4 25.6 55.466667V341.333333zM341.333333 512H170.666667v128h170.666666v-128z m256 0h-170.666666v128h170.666666v-128z m256 0h-170.666666v128h170.666666v-128zM341.333333 725.333333H170.666667v128h170.666666v-128z m256 0h-170.666666v128h170.666666v-128z m256 0h-170.666666v128h170.666666v-128z" p-id="3175"></path></svg>