<?xml version="1.0" standalone="no"?><!DOCTYPE svg PUBLIC "-//W3C//DTD SVG 1.1//EN" "http://www.w3.org/Graphics/SVG/1.1/DTD/svg11.dtd"><svg t="1606318014094" class="icon" viewBox="0 0 1024 1024" version="1.1" xmlns="http://www.w3.org/2000/svg" p-id="4522" xmlns:xlink="http://www.w3.org/1999/xlink" width="200" height="200"><defs><style type="text/css"></style></defs><path d="M577.18 483.38l426.95-338.71c-18.62-25.51-48.53-42.26-82.53-42.26H102.4c-27.93 0-53.18 11.24-71.64 29.36l443.2 351.61c30.42 24.14 72.85 24.1 103.22 0z" p-id="4523"></path><path d="M640.83 563.58c-33.92 26.92-74.6 40.4-115.25 40.4-40.67 0-81.32-13.47-115.27-40.4L0 238.05V819.2c0 56.55 45.84 102.4 102.4 102.4h819.2c56.55 0 102.4-45.85 102.4-102.4V259.6L640.83 563.58z" p-id="4524"></path></svg>