<?xml version="1.0" standalone="no"?><!DOCTYPE svg PUBLIC "-//W3C//DTD SVG 1.1//EN" "http://www.w3.org/Graphics/SVG/1.1/DTD/svg11.dtd"><svg t="1606317951456" class="icon" viewBox="0 0 1024 1024" version="1.1" xmlns="http://www.w3.org/2000/svg" p-id="4382" xmlns:xlink="http://www.w3.org/1999/xlink" width="200" height="200"><defs><style type="text/css"></style></defs><path d="M943.874 70c7.33 4 12 10 14 18s2.67 18.33 2 31l-163 809c0 7.33-2 13.5-6 18.5s-10 9.5-18 13.5h-17c-4 0-8-0.33-12-1s-8-3-12-7l-196-130-97 98c-4.67 4-10.67 7.17-18 9.5s-15 1.5-23-2.5-14-9.5-18-16.5-6-14.83-6-23.5V709c-0.67-4-0.5-8 0.5-12s3.5-8 7.5-12l391-413-17-8-431 389c-8.67 8-17 12.33-25 13s-16-1-24-5l-196-122c-4 0-7.67-3.17-11-9.5s-5-13.83-5-22.5 2-16.17 6-22.5 10-9.5 18-9.5l815-405c4-4 9.67-6 17-6s15.33 2 24 6z" p-id="4383"></path></svg>