<?xml version="1.0" standalone="no"?><!DOCTYPE svg PUBLIC "-//W3C//DTD SVG 1.1//EN" "http://www.w3.org/Graphics/SVG/1.1/DTD/svg11.dtd"><svg t="1606202545421" class="icon" viewBox="0 0 1024 1024" version="1.1" xmlns="http://www.w3.org/2000/svg" p-id="5171" xmlns:xlink="http://www.w3.org/1999/xlink" width="200" height="200"><defs><style type="text/css"></style></defs><path d="M177.120053 299.828464c14.788226 0 27.092934 15.917098 31.72131 22.803219 13.659354 20.206813 21.448572 48.993055 21.448572 79.133944 0 30.140889-7.789218 59.040018-21.448572 79.133943-4.628376 6.886121-16.933083 22.803219-31.72131 22.803219s-27.092934-15.917098-31.72131-22.803219c-13.659354-20.206813-21.448572-48.993055-21.448572-79.133943 0-30.140889 7.789218-59.040018 21.448572-79.133944 4.628376-6.886121 16.933083-22.803219 31.72131-22.803219m0-48.089957c-55.879175 0-101.146952 67.167898-101.146952 149.914232 0 82.859222 45.267776 149.914232 101.146952 149.914233s101.146952-67.167898 101.146952-149.914233c0-82.746334-45.267776-149.914232-101.146952-149.914232zM379.526844 117.289825c14.788226 0 27.092934 15.917098 31.721309 22.803219 13.659354 20.206813 21.448572 48.993055 21.448573 79.133943 0 30.140889-7.789218 59.040018-21.448573 79.133943-4.628376 6.886121-16.933083 22.803219-31.721309 22.803219-14.788226 0-27.092934-15.917098-31.72131-22.803219-13.659354-20.206813-21.448572-48.993055-21.448572-79.133943 0-30.140889 7.789218-59.040018 21.448572-79.133943 4.515489-6.886121 16.933083-22.803219 31.72131-22.803219m0-48.089957c-55.879175 0-101.146952 67.167898-101.146952 149.914232 0 82.859222 45.267776 149.914232 101.146952 149.914232s101.146952-67.167898 101.146952-149.914232c0-82.746334-45.267776-149.914232-101.146952-149.914232zM505.960534 482.367104c4.628376 0.112887 58.13692 2.596406 92.003086 37.591445 13.772241 14.22379 25.851174 36.236799 38.607431 59.717341 26.867159 49.105942 60.281777 110.17793 131.965163 134.787344 23.028993 7.902106 39.962077 23.141881 51.928123 46.509536 10.837173 21.335685 16.933083 48.880168 16.933083 77.553523 0 19.190828-6.999008 34.769265-20.771249 46.283761-17.949068 15.014001-46.73531 23.028993-82.972109 23.028994-50.121927 0-89.745342-10.837173-128.014111-21.222798-33.527505-9.143865-65.248815-17.836181-99.679417-17.836182-34.317716 0-66.039025 8.692316-99.679418 17.836182-38.268769 10.498512-77.892184 21.222798-128.014111 21.222798-36.349686 0-65.02304-8.014993-83.084996-23.028994-13.772241-11.514497-20.771249-27.092934-20.771249-46.283761 0-28.673355 5.983023-56.217837 16.933083-77.553523 11.966046-23.367655 28.899129-38.60743 51.928123-46.509536 71.796274-24.609415 105.098005-85.794289 131.965163-134.787344 12.756256-23.367655 24.835189-45.493551 38.607431-59.717341 33.979054-34.995039 87.487598-37.478558 92.115974-37.591445m0-47.97707s-75.860214 0-126.43369 52.153897-66.942123 153.413736-151.720428 182.53864c-75.973101 26.076949-101.259839 104.307794-101.259839 169.556609 0 65.248815 50.573476 117.289825 151.833315 117.289825 101.146952 0 164.476684-39.058979 227.693529-39.05898s126.43369 39.058979 227.693529 39.05898c101.146952 0 151.720428-52.153897 151.720427-117.289825 0-65.248815-25.286738-143.47966-101.146951-169.556609-84.891192-29.124904-101.146952-130.384743-151.833315-182.53864-50.686363-52.153897-126.546577-52.153897-126.546577-52.153897zM834.801014 299.828464c14.788226 0 27.092934 15.917098 31.72131 22.803219 13.659354 20.206813 21.448572 48.993055 21.448572 79.133944 0 30.140889-7.789218 59.040018-21.448572 79.133943-4.628376 6.886121-16.933083 22.803219-31.72131 22.803219s-27.092934-15.917098-31.721309-22.803219c-13.659354-20.206813-21.448572-48.993055-21.448573-79.133943 0-30.140889 7.789218-59.040018 21.448573-79.133944 4.515489-6.886121 16.933083-22.803219 31.721309-22.803219m0-48.089957c-55.879175 0-101.146952 67.167898-101.146952 149.914232 0 82.859222 45.267776 149.914232 101.146952 149.914233s101.146952-67.167898 101.146952-149.914233c0-82.746334-45.267776-149.914232-101.146952-149.914232zM632.394223 117.289825c14.788226 0 27.092934 15.917098 31.72131 22.803219 13.659354 20.206813 21.448572 48.993055 21.448572 79.133943 0 30.140889-7.789218 59.040018-21.448572 79.133943-4.628376 6.886121-16.933083 22.803219-31.72131 22.803219-14.788226 0-27.092934-15.917098-31.721309-22.803219-13.659354-20.206813-21.448572-48.993055-21.448573-79.133943 0-30.140889 7.789218-59.040018 21.448573-79.133943 4.628376-6.886121 16.933083-22.803219 31.721309-22.803219m0-48.089957c-55.879175 0-101.146952 67.167898-101.146951 149.914232 0 82.859222 45.267776 149.914232 101.146951 149.914232 55.879175 0 101.146952-67.167898 101.146952-149.914232 0.112887-82.746334-45.267776-149.914232-101.146952-149.914232z" p-id="5172" fill="#ffffff"></path></svg>