<?xml version="1.0" standalone="no"?><!DOCTYPE svg PUBLIC "-//W3C//DTD SVG 1.1//EN" "http://www.w3.org/Graphics/SVG/1.1/DTD/svg11.dtd"><svg t="1606202524489" class="icon" viewBox="0 0 1024 1024" version="1.1" xmlns="http://www.w3.org/2000/svg" p-id="4705" xmlns:xlink="http://www.w3.org/1999/xlink" width="200" height="200"><defs><style type="text/css"></style></defs><path d="M868.864 505.344c-17.408 15.872-44.544 14.336-60.416-3.072-14.336-15.872-14.848-39.424-1.024-55.808L882.176 368.64c55.808-68.608 48.64-168.96-16.384-229.376-64.512-67.072-160.256-73.216-214.528-16.896L442.368 340.48c-55.808 68.608-48.64 168.96 16.384 229.376 16.384 16.896 16.384 43.52 0 60.416-16.896 16.896-44.032 16.896-60.416 0-96.768-93.184-103.936-245.76-16.384-347.648l208.384-217.088c89.6-93.696 241.664-85.504 338.432 16.896 93.696 93.184 100.352 242.688 14.848 343.552l-74.752 79.36z" p-id="4706" fill="#ffffff"></path><path d="M155.136 518.656c17.408-15.872 44.544-14.336 60.416 3.072 14.336 15.872 14.848 39.424 1.024 55.808L141.824 655.36c-55.808 68.608-48.64 168.96 16.384 229.376 64.512 67.072 160.256 73.216 214.528 16.896l208.384-218.624c55.808-68.608 48.64-168.96-16.384-229.376-16.384-16.896-16.384-43.52 0-60.416 16.896-16.896 44.032-16.896 60.416 0 96.768 93.184 103.936 245.76 16.384 347.648l-208.384 217.088c-89.6 93.696-241.664 85.504-338.432-16.896C1.536 848.384-5.12 698.88 80.384 597.504l74.752-78.848z" p-id="4707" fill="#ffffff"></path></svg>