<?xml version="1.0" standalone="no"?><!DOCTYPE svg PUBLIC "-//W3C//DTD SVG 1.1//EN" "http://www.w3.org/Graphics/SVG/1.1/DTD/svg11.dtd"><svg t="1606202490370" class="icon" viewBox="0 0 1027 1024" version="1.1" xmlns="http://www.w3.org/2000/svg" p-id="4241" xmlns:xlink="http://www.w3.org/1999/xlink" width="200.5859375" height="200"><defs><style type="text/css"></style></defs><path d="M798.034688 1024h-198.309922c-20.789992 0-36.781986-15.992994-36.781986-36.782986V670.562138H449.394824v316.654876c0 20.789992-15.992994 36.782986-36.782985 36.782986h-195.109924c-60.772976 0-110.349957-49.576981-110.349957-110.349957V590.600169h-20.789992C38.381985 590.599169 0 552.216184 0 504.239203c0-22.389991 7.995997-43.180983 23.988991-59.173977L396.618845 50.04638c60.771976-63.969975 161.525937-67.168974 227.095911-6.396997 1.599999 3.198999 3.197999 4.797998 6.396998 6.396997l372.629854 395.019846c33.583987 33.583987 31.984988 87.958966-1.599999 121.543953-15.992994 15.991994-38.381985 23.988991-60.771976 23.98899h-31.985988V913.650043c0 60.771976-49.576981 110.348957-110.348957 110.348957z m-159.926937-73.565971h159.926937c20.789992 0 38.381985-17.591993 38.381985-38.382985V553.815184c0-20.789992 15.992994-36.782986 36.783986-36.782986h68.767973c4.797998 0 9.595996-3.197999 11.194996-7.995997 1.599999-4.797998 1.599999-9.595996-3.198999-14.392994l-374.227854-393.419847c-33.584987-35.183986-87.959966-36.782986-123.143952-3.198998-1.598999 0-3.197999 1.599999-3.197999 3.198998l-372.629854 393.419847c-4.796998 4.796998-4.796998 12.793995 0 17.591993 3.199999 3.197999 6.397998 3.197999 9.595996 3.197999h59.172977c20.789992 0 36.782986 15.992994 36.782986 36.782985v359.83486c0 20.789992 17.591993 38.382985 38.382985 38.382985h158.326938V670.562138c0-41.580984 33.584987-73.565971 73.565971-73.565971h113.547956c41.580984 0 73.566971 33.583987 73.566971 73.565971l-1.599999 279.871891z" fill="#ffffff" p-id="4242"></path></svg>