<?xml version="1.0" standalone="no"?><!DOCTYPE svg PUBLIC "-//W3C//DTD SVG 1.1//EN" "http://www.w3.org/Graphics/SVG/1.1/DTD/svg11.dtd"><svg t="1606297113798" class="icon" viewBox="0 0 1024 1024" version="1.1" xmlns="http://www.w3.org/2000/svg" p-id="4617" xmlns:xlink="http://www.w3.org/1999/xlink" width="200" height="200"><defs><style type="text/css"></style></defs><path d="M1015.81082773 433.87734965l-7.02680244-335.23468256v-1.16644894A94.56670519 94.56670519 0 0 0 918.72852762 7.87043516h-1.16644893L584.49165088 2.72681592a80.1055464 80.1055464 0 0 0-59.68565859 23.34303758L27.08353377 523.84852673a64.96981411 64.96981411 0 0 0 0 91.89652008L402.96124095 991.63680694a64.96981411 64.96981411 0 0 0 91.88246616 0l497.65219087-497.62408304a80.0071709 80.0071709 0 0 0 23.31492975-60.13537425z m-73.00847531 10.45588164L448.91652795 938.20500281 80.51533789 569.80381275 574.49953785 75.80555986a9.68293364 9.68293364 0 0 1 7.27976713-2.81072138h1.16644894l332.8034092 5.04524475a24.48137869 24.48137869 0 0 1 22.85116117 22.72467782l7.02680244 335.03793258v1.16644896a9.64077286 9.64077286 0 0 1-2.82477431 7.36408868z" p-id="4618"></path><path d="M604.20885735 223.36840744a135.16756805 135.16756805 0 1 0 191.12902198 0 135.32215823 135.32215823 0 0 0-191.129022 0z m141.46358428 141.46358329a64.87143862 64.87143862 0 1 1 0-91.78409164 64.98386705 64.98386705 0 0 1 0 91.78409164z" p-id="4619"></path></svg>