<?xml version="1.0" standalone="no"?><!DOCTYPE svg PUBLIC "-//W3C//DTD SVG 1.1//EN" "http://www.w3.org/Graphics/SVG/1.1/DTD/svg11.dtd"><svg t="1606273556587" class="icon" viewBox="0 0 1024 1024" version="1.1" xmlns="http://www.w3.org/2000/svg" p-id="3314" xmlns:xlink="http://www.w3.org/1999/xlink" width="200" height="200"><defs><style type="text/css"></style></defs><path d="M512 910.222222C229.233778 910.222222 0 596.707556 0 512 0 427.292444 229.233778 113.777778 512 113.777778s512 311.580444 512 398.222222c0 86.641778-229.233778 398.222222-512 398.222222z m0-56.888889c111.729778 0 225.877333-57.685333 324.238222-153.088C911.530667 627.2 967.111111 537.230222 967.111111 512c0-25.230222-55.580444-115.2-130.872889-188.245333C737.848889 228.352 623.758222 170.666667 512 170.666667c-111.587556 0-225.649778 57.941333-324.181333 153.770666C112.725333 397.454222 56.888889 487.68 56.888889 512c0 24.32 55.864889 114.545778 130.929778 187.562667C286.350222 795.420444 400.412444 853.333333 512 853.333333z m0-170.666666a170.666667 170.666667 0 1 1 0-341.333334 170.666667 170.666667 0 0 1 0 341.333334z m0-56.888889a113.777778 113.777778 0 1 0 0-227.555556 113.777778 113.777778 0 0 0 0 227.555556z" p-id="3315"></path></svg>