<?xml version="1.0" standalone="no"?><!DOCTYPE svg PUBLIC "-//W3C//DTD SVG 1.1//EN" "http://www.w3.org/Graphics/SVG/1.1/DTD/svg11.dtd"><svg t="1606297090234" class="icon" viewBox="0 0 1024 1024" version="1.1" xmlns="http://www.w3.org/2000/svg" p-id="4337" xmlns:xlink="http://www.w3.org/1999/xlink" width="200" height="200"><defs><style type="text/css"></style></defs><path d="M1012.546768 321.876347 523.94378 601.497305C520.701897 603.305934 517.152888 604.227312 513.569754 604.227312 510.020745 604.227312 506.471736 603.305934 503.263978 601.497305L11.111981 319.931217C4.423464 316.109207 0.294329 308.874689 0.294329 301.094169 0.294329 293.279524 4.423464 286.079131 11.111981 282.257121L499.783219 2.704413C506.198735-0.912846 514.047505-0.912846 520.428896 2.704413L1012.546768 284.202251C1019.235285 288.024261 1023.36442 295.224654 1023.36442 303.039299 1023.36442 310.819819 1019.235285 318.020212 1012.546768 321.876347ZM510.12312 77.335977 107.276475 294.439777 513.569754 526.899866 928.70143 303.039299 510.12312 77.335977ZM31.757659 476.462988 513.569754 752.125436 991.866965 478.408118C1002.070366 472.606853 1015.003774 476.292363 1020.634413 486.700514 1026.367428 497.108665 1022.716044 541.266527 1012.546768 547.136042L523.94378 826.722875C520.701897 828.531505 517.152888 829.487007 513.569754 829.487007 510.020745 829.487007 506.471736 828.531505 503.263978 826.722875L11.111981 545.190912C0.942706 539.321397-2.708679 495.163535 3.024336 484.755384 8.654975 474.347233 21.554258 470.661723 31.757659 476.462988ZM31.757659 670.70298 513.569754 946.365428 991.866965 672.64811C1002.070366 666.88097 1015.003774 670.532355 1020.634413 680.940506 1026.367428 691.314532 1022.716044 735.506519 1012.546768 741.341909L523.94378 1020.962867C520.701897 1022.771497 517.152888 1023.692874 513.569754 1023.692874 510.020745 1023.692874 506.471736 1022.771497 503.263978 1020.962867L11.111981 739.396779C0.942706 733.561389-2.708679 689.369402 3.024336 678.995376 8.654975 668.587225 21.554258 664.833465 31.757659 670.70298Z" p-id="4338"></path></svg>