<?xml version="1.0" standalone="no"?><!DOCTYPE svg PUBLIC "-//W3C//DTD SVG 1.1//EN" "http://www.w3.org/Graphics/SVG/1.1/DTD/svg11.dtd"><svg t="1606270501822" class="icon" viewBox="0 0 1433 1024" version="1.1" xmlns="http://www.w3.org/2000/svg" p-id="2988" xmlns:xlink="http://www.w3.org/1999/xlink" width="279.8828125" height="200"><defs><style type="text/css"></style></defs><path d="M693.4528 1017.1392C335.6672 1017.1392 0 759.0912 0 508.5184 0 258.048 335.6672 0 693.4528 0c357.888 0 693.5552 258.048 693.5552 508.5184 0 250.5728-335.6672 508.6208-693.5552 508.6208z m0-92.4672c311.296 0 601.088-222.8224 601.088-416.1536 0-193.2288-289.792-416.0512-601.088-416.0512C382.2592 92.4672 92.4672 315.2896 92.4672 508.5184c0 193.3312 289.792 416.1536 601.088 416.1536z m0-184.9344a231.1168 231.1168 0 1 1 0-462.336 231.1168 231.1168 0 0 1 0 462.336z m0-92.4672a138.6496 138.6496 0 1 0 0-277.4016 138.6496 138.6496 0 0 0 0 277.4016z" fill="#6610f2" p-id="2989"></path></svg>