<?xml version="1.0" standalone="no"?><!DOCTYPE svg PUBLIC "-//W3C//DTD SVG 1.1//EN" "http://www.w3.org/Graphics/SVG/1.1/DTD/svg11.dtd"><svg t="1606297108066" class="icon" viewBox="0 0 1024 1024" version="1.1" xmlns="http://www.w3.org/2000/svg" p-id="4477" xmlns:xlink="http://www.w3.org/1999/xlink" width="200" height="200"><defs><style type="text/css"></style></defs><path d="M825.869128 1004.123897a54.849641 54.849641 0 0 1-54.613333-54.613333V326.892308c0-14.441026 5.907692-28.356923 16.068923-38.544411a52.985436 52.985436 0 0 1 38.019282-15.517538h124.192821c29.984821 0 54.613333 24.628513 54.613333 54.613333v622.618257c0 14.467282-5.881436 28.383179-16.042667 38.570666a53.90441 53.90441 0 0 1-38.019282 15.491282h-124.19282z m-6.406564-50.858666c0.525128 1.050256 1.050256 2.126769 2.126769 2.678154l0.525129 0.525128c0.525128 0.525128 1.076513 0.525128 2.153025 0.525128h125.269334c2.678154 0 4.831179-1.050256 6.43282-2.651897l0.525128-1.076513a5.77641 5.77641 0 0 0 1.627898-3.754667V326.367179a4.857436 4.857436 0 0 0-1.601641-3.754666c-0.525128-1.050256-1.076513-2.126769-2.153026-2.678154-0.525128-0.525128-2.153026-1.050256-4.279795-1.050256h-123.667692a8.874667 8.874667 0 0 0-6.432821 2.651897l-0.525128 1.076513a5.77641 5.77641 0 0 0-1.627897 3.754666v623.169642c-0.525128 1.601641 0 3.203282 1.627897 3.754666z m-367.274667 50.858666c-14.441026 0-28.356923-5.356308-38.54441-15.517538a54.744615 54.744615 0 0 1-16.068923-38.570667V77.377641c0-14.441026 5.881436-28.356923 16.068923-38.54441A52.985436 52.985436 0 0 1 451.610256 23.315692h124.219077c14.441026 0 28.356923 5.356308 38.544411 15.517539 10.187487 10.187487 16.068923 24.103385 16.068923 38.54441v872.132923c0 14.441026-5.881436 28.356923-16.068923 38.54441a52.985436 52.985436 0 0 1-38.019282 15.517539h-124.192821v0.525128z m-1.050256-934.780718c-1.102769 0-2.153026 0.525128-2.70441 1.076513l-1.601641 1.076513c-0.525128 0-1.050256 0.525128-1.050257 0.525128l-1.102769 1.076513c-1.050256 1.076513-1.575385 2.678154-1.050256 4.279795v872.658051c0 1.076513 0 1.627897 0.525128 2.153026l0.525128 0.525128a8.664615 8.664615 0 0 0 7.509333 4.306051h125.269334c1.601641 0 3.229538-0.525128 4.279795-1.627897l1.601641-2.126769a4.174769 4.174769 0 0 0 1.076512-4.279795V76.327385c0-1.076513 0-1.627897-0.525128-2.678154l-0.525128-0.525128c-1.076513-2.153026-3.229538-4.306051-7.509333-4.306052h-124.717949v0.525128zM78.454154 1004.123897c-29.958564 0-54.613333-24.103385-54.613333-54.088205V575.829333c0-30.536205 24.103385-54.088205 54.613333-54.088205H202.174359c29.984821 0 54.613333 24.103385 54.613333 54.088205v374.206359c0 30.536205-24.077128 54.088205-54.613333 54.088205H78.506667z m122.092308-46.578871a10.528821 10.528821 0 0 0 10.16123-10.161231V575.803077a5.618872 5.618872 0 0 0-2.678154-4.83118 5.48759 5.48759 0 0 0-3.203282-2.678153c-0.525128 0-1.627897-0.525128-2.678153-0.525129H82.235077a12.104205 12.104205 0 0 0-12.314256 12.314257v369.95282c0 2.126769 1.076513 3.72841 2.678153 4.804923 0.525128 1.050256 1.601641 2.153026 3.229539 2.678154 0.525128 0 1.575385 0.525128 2.651897 0.525128h122.092308v-0.525128z" p-id="4478"></path></svg>